# xmcd CD database file
# Copyright (C) 1995-1998 Ti Kan
#
# Track frame offsets:
#	150
#	19440
#	34962
#	53760
#	72130
#	85697
#	106585
#	123167
#	140130
#	156682
#
# Disc length: 2296 seconds
#
# Revision: 2
# Processed by: cddbd v1.4PL0 Copyright (c) Steve Scherf et al.
# Submitted via: CDex 1.30Release
#
DISCID=8708f60a
DTITLE=Denise LaSalle - Right Place, Right Time
DYEAR=1984
DGENRE=Blues
TTITLE0=Right Place, Right Time
TTITLE1=He's Not Available
TTITLE2=Treat Your Man Like A Baby
TTITLE3=Good Man Gone Bad
TTITLE4=Boogie Man
TTITLE5=Your Husband is Cheating On Us
TTITLE6=Why Does It Feel So Right
TTITLE7=Keep Your Pants On
TTITLE8=Bump And Grind
TTITLE9=Love School
EXTD=YEAR: 1984 ID3G:   0
EXTT0=
EXTT1=
EXTT2=
EXTT3=
EXTT4=
EXTT5=
EXTT6=
EXTT7=
EXTT8=
EXTT9=
PLAYORDER=
